# xmcd
#
# Track frame offsets: 
#        150
#        12489
#        28420
#        44938
#        60027
#        73363
#        88694
#        100505
#        112141
#        126908
#        143671
#        160710
#        172121
#
# Disc length: 2528 seconds
#
# Revision: 12
# Processed by: cddbd v1.5.2PL0 Copyright (c) Steve Scherf et al.
# Submitted via: ExactAudioCopy v1.0b4
#
DISCID=bb09de0d
DTITLE=Rionegro and Solimões - Ensaio Acústico (2002)
DYEAR=2002
DGENRE=Other
TTITLE0=Rodopiou
TTITLE1=Tô Por Aí
TTITLE2=Estrela Guia
TTITLE3=Meus Pedaços
TTITLE4=Ainda Ontem Chorei De Saudade
TTITLE5=Medo Da Chuva
TTITLE6=Sapatiô, Sapatiô
TTITLE7=Carro Velho
TTITLE8=Tô Indo Embora
TTITLE9=Chumbo Trocado
TTITLE10=Como Te Esquecer
TTITLE11=Quarto Triste
TTITLE12=Porta Do Mundo
EXTD=by Clayton
EXTT0=
EXTT1=
EXTT2=
EXTT3=
EXTT4=
EXTT5=
EXTT6=
EXTT7=
EXTT8=
EXTT9=
EXTT10=
EXTT11=
EXTT12=
PLAYORDER=
